<?xml version="1.0" standalone="no"?>
<!DOCTYPE svg PUBLIC "-//W3C//DTD SVG 20010904//EN"
 "http://www.w3.org/TR/2001/REC-SVG-20010904/DTD/svg10.dtd">
<svg version="1.0" xmlns="http://www.w3.org/2000/svg"
 width="567.000000pt" height="569.000000pt" viewBox="0 0 567.000000 569.000000"
 preserveAspectRatio="xMidYMid meet">

<g transform="translate(0.000000,569.000000) scale(0.100000,-0.100000)"
fill="#000000" stroke="none">
<path d="M2574 5680 c-637 -54 -1257 -338 -1733 -795 -194 -186 -397 -449
-521 -675 -104 -188 -195 -432 -255 -680 -126 -528 -62 -995 188 -1359 69
-101 231 -267 337 -345 213 -159 494 -277 753 -317 124 -19 385 -7 535 25 287
62 536 174 745 333 161 123 362 346 459 508 95 159 204 428 224 554 l6 40
-203 -70 c-112 -38 -331 -113 -485 -165 l-282 -96 -7 -70 c-19 -194 -93 -362
-218 -494 -173 -183 -366 -267 -612 -265 -236 1 -421 83 -591 264 -250 264
-292 667 -103 977 190 311 561 462 910 370 232 -60 409 -205 529 -431 l35 -67
165 49 c968 282 1710 690 2270 1249 137 137 312 338 327 376 7 18 -128 174
-257 297 -436 419 -967 678 -1575 767 -160 23 -482 34 -641 20z"/>
<path d="M4310 3121 l-85 -6 -37 -147 c-158 -636 -491 -1215 -1088 -1893 -53
-60 -204 -225 -335 -365 -398 -428 -474 -540 -419 -618 22 -32 47 -42 143 -58
217 -36 576 -26 836 21 461 85 908 289 1275 581 118 95 362 340 450 454 223
288 389 610 489 948 73 247 109 485 118 782 l6 206 -119 22 c-160 29 -398 59
-569 72 -144 10 -513 11 -665 1z"/>
</g>
</svg>
