<?xml version="1.0" standalone="no"?>
<!DOCTYPE svg PUBLIC "-//W3C//DTD SVG 20010904//EN"
 "http://www.w3.org/TR/2001/REC-SVG-20010904/DTD/svg10.dtd">
<svg version="1.0" xmlns="http://www.w3.org/2000/svg"
 width="640.000000pt" height="483.000000pt" viewBox="0 0 640.000000 483.000000"
 preserveAspectRatio="xMidYMid meet">

<g transform="translate(0.000000,483.000000) scale(0.100000,-0.100000)"
fill="#000000" stroke="none">
<path d="M4755 4619 c-242 -20 -496 -79 -715 -166 -262 -103 -596 -300 -826
-485 -50 -40 -111 -89 -135 -108 -75 -60 -250 -233 -293 -288 -140 -182 -171
-226 -269 -387 -46 -75 -59 -90 -78 -88 -49 4 -568 83 -781 119 l-97 16 -48
-33 c-49 -33 -78 -55 -608 -459 -171 -130 -368 -280 -440 -335 -154 -116 -150
-113 -143 -120 3 -3 104 -17 223 -30 120 -14 277 -32 349 -40 72 -8 232 -26
356 -40 233 -26 438 -52 477 -61 13 -2 23 -10 23 -17 0 -6 -192 -204 -427
-439 -235 -235 -424 -431 -420 -435 9 -8 42 3 667 221 261 91 481 166 488 166
6 0 12 -4 12 -8 0 -11 -69 -213 -275 -807 -97 -280 -179 -520 -182 -532 -3
-14 -1 -23 6 -23 10 0 366 181 1166 592 153 79 203 109 213 130 6 14 34 100
61 190 95 315 193 633 202 649 5 11 27 18 66 22 481 47 753 131 1185 363 464
249 825 571 1067 952 205 324 359 754 418 1167 14 100 14 118 2 130 -34 33
-374 122 -588 155 -246 38 -444 46 -656 29z"/>
</g>
</svg>
