<?xml version="1.0" standalone="no"?>
<!DOCTYPE svg PUBLIC "-//W3C//DTD SVG 20010904//EN"
 "http://www.w3.org/TR/2001/REC-SVG-20010904/DTD/svg10.dtd">
<svg version="1.0" xmlns="http://www.w3.org/2000/svg"
 width="415.000000pt" height="406.000000pt" viewBox="0 0 415.000000 406.000000"
 preserveAspectRatio="xMidYMid meet">

<g transform="translate(0.000000,406.000000) scale(0.100000,-0.100000)"
fill="#000000" stroke="none">
<path d="M2237 4013 c-10 -9 -9 -1963 1 -1963 5 0 58 57 119 128 61 70 120
136 130 147 10 11 31 36 47 55 16 19 63 72 104 118 l75 82 152 0 c83 0 155 -3
158 -6 7 -7 -25 -46 -212 -259 l-115 -130 694 -3 c382 -1 697 1 701 5 7 8 2
49 -22 198 -20 128 -79 320 -133 438 -14 32 -26 59 -26 61 0 10 -99 179 -143
246 -152 227 -381 447 -617 592 -62 38 -238 127 -315 159 -124 51 -306 99
-474 124 -121 17 -116 17 -124 8z"/>
<path d="M1790 3999 c-86 -13 -173 -30 -200 -39 -14 -4 -45 -13 -70 -20 -203
-57 -410 -153 -580 -269 -52 -36 -97 -67 -100 -71 -3 -3 -41 -35 -85 -72 -113
-93 -221 -212 -336 -368 -88 -119 -198 -339 -254 -505 -51 -152 -105 -424 -92
-458 6 -16 63 -17 692 -17 546 0 685 3 679 13 -9 14 -76 93 -216 253 -54 62
-98 117 -98 123 0 8 50 11 164 11 l164 0 54 -62 c29 -35 67 -79 84 -98 97
-109 196 -223 243 -278 29 -34 62 -67 72 -73 19 -9 19 16 19 966 l0 975 -42
-1 c-24 -1 -68 -5 -98 -10z"/>
<path d="M2236 2000 c-4 -8 -5 -451 -4 -985 l3 -969 50 2 c68 3 158 19 296 53
759 183 1366 829 1489 1584 6 39 16 94 21 124 5 29 6 57 3 62 -6 10 -1377 13
-1387 3 -6 -6 25 -42 222 -263 36 -40 74 -87 84 -102 l19 -29 -160 0 -161 0
-63 72 c-35 39 -85 97 -113 127 -27 31 -90 103 -140 160 -160 184 -153 177
-159 161z"/>
<path d="M1849 1928 c-35 -40 -68 -78 -74 -84 -5 -6 -66 -76 -135 -155 -69
-79 -142 -161 -163 -181 l-38 -38 -150 0 c-122 0 -151 3 -155 15 -5 13 54 90
160 205 98 107 155 177 149 183 -3 4 -312 7 -685 7 -605 0 -679 -2 -685 -16
-13 -34 41 -307 92 -459 33 -99 125 -300 172 -380 108 -178 267 -367 415 -492
89 -75 269 -203 286 -203 6 0 12 -4 14 -9 5 -14 265 -137 348 -164 175 -58
350 -96 460 -100 l65 -2 3 973 c1 537 -2 972 -6 972 -5 0 -38 -33 -73 -72z"/>
</g>
</svg>
