<?xml version="1.0" standalone="no"?>
<!DOCTYPE svg PUBLIC "-//W3C//DTD SVG 20010904//EN"
 "http://www.w3.org/TR/2001/REC-SVG-20010904/DTD/svg10.dtd">
<svg version="1.0" xmlns="http://www.w3.org/2000/svg"
 width="468.000000pt" height="306.000000pt" viewBox="0 0 468.000000 306.000000"
 preserveAspectRatio="xMidYMid meet">

<g transform="translate(0.000000,306.000000) scale(0.100000,-0.100000)"
fill="#000000" stroke="none">
<path d="M336 3040 c-150 -48 -266 -181 -296 -340 -6 -32 -10 -345 -10 -819 0
-815 2 -847 49 -939 36 -70 124 -156 198 -193 l68 -34 1990 0 1990 0 58 28
c73 36 165 121 200 185 56 104 57 108 57 948 0 514 -4 790 -11 829 -12 63 -46
139 -88 194 -41 54 -136 119 -208 141 -64 20 -89 20 -2002 19 -1868 0 -1938
-1 -1995 -19z m3584 -440 c105 -23 200 -58 200 -73 -1 -7 -23 -66 -50 -132
-38 -95 -52 -120 -67 -118 -10 1 -56 16 -103 33 -143 53 -287 52 -325 -3 -24
-34 -19 -80 13 -110 15 -14 99 -62 187 -105 88 -44 184 -98 214 -120 98 -74
136 -160 134 -302 -3 -269 -236 -428 -593 -405 -108 8 -190 24 -273 55 l-57
21 0 155 c0 85 2 154 4 154 2 0 29 -11 61 -25 96 -43 241 -76 335 -78 73 -1
91 2 122 21 19 12 41 36 49 54 11 27 10 35 -7 67 -16 31 -40 47 -180 116 -199
99 -256 136 -299 192 -52 68 -70 132 -70 248 0 82 5 109 23 150 26 57 89 125
147 160 123 72 330 89 535 45z m-2590 -130 l0 -140 -217 -2 -218 -3 0 -105 0
-105 198 -3 197 -2 0 -140 0 -140 -188 0 c-133 0 -192 -4 -200 -12 -17 -17
-17 -229 0 -246 9 -9 72 -12 220 -12 l208 0 0 -140 0 -140 -395 0 -395 0 0
665 0 665 395 0 395 0 0 -140z m600 -507 c0 -401 -4 -672 -11 -712 -32 -198
-126 -318 -289 -369 -58 -18 -268 -24 -322 -9 l-28 7 0 135 0 135 33 -8 c17
-4 61 -7 97 -7 53 0 71 5 99 24 68 49 66 22 69 774 l3 677 174 0 175 0 0 -647z
m1088 505 l3 -138 -218 -2 -218 -3 0 -105 0 -105 198 -3 197 -2 0 -140 0 -140
-188 0 c-133 0 -192 -4 -200 -12 -17 -17 -17 -229 0 -246 9 -9 72 -12 220 -12
l208 0 0 -140 0 -140 -395 0 -395 0 0 665 0 665 393 -2 392 -3 3 -137z"/>
<path d="M4256 457 c-28 -21 -17 -52 19 -52 24 0 31 5 33 24 2 13 -2 28 -10
32 -18 12 -21 11 -42 -4z"/>
<path d="M298 453 c-41 -5 -46 -10 -24 -27 9 -7 13 -21 9 -37 -4 -22 -12 -28
-46 -32 -110 -15 -162 -197 -66 -231 19 -6 35 -4 57 6 26 13 32 14 36 2 8 -20
40 -17 67 6 20 16 21 19 7 20 -23 0 -23 28 1 178 16 105 16 125 2 120 -3 -1
-23 -3 -43 -5z m-33 -190 c-9 -83 -19 -105 -48 -101 -19 3 -22 10 -25 50 -4
66 19 118 54 118 l26 0 -7 -67z"/>
<path d="M643 453 c-33 -4 -44 -18 -21 -25 8 -3 7 -38 -5 -135 -10 -71 -17
-138 -17 -146 0 -21 42 -32 69 -17 24 12 28 30 6 30 -10 0 -13 8 -10 28 3 15
12 78 20 140 14 107 14 134 -3 130 -4 0 -22 -3 -39 -5z"/>
<path d="M1908 453 c-36 -4 -55 -23 -22 -23 11 0 14 -8 12 -32 -3 -29 -7 -33
-40 -39 -77 -12 -121 -68 -122 -153 0 -39 5 -52 23 -67 28 -23 59 -24 88 -4
18 13 22 13 33 0 17 -21 44 -19 65 5 16 18 16 20 2 20 -21 0 -21 8 3 159 18
117 18 143 2 139 -4 -1 -24 -3 -44 -5z m-21 -136 c-3 -8 -8 -40 -12 -73 -8
-65 -18 -84 -46 -84 -36 0 -37 113 -2 152 19 21 68 25 60 5z"/>
<path d="M2963 453 c-29 -4 -48 -23 -23 -23 14 0 13 -37 -7 -173 -14 -102 -14
-120 -2 -128 21 -13 43 -11 65 6 16 12 17 16 5 24 -13 8 -13 25 -2 118 6 59
15 125 18 146 4 28 2 37 -8 35 -8 0 -29 -3 -46 -5z"/>
<path d="M3935 390 c-4 -11 -17 -28 -30 -36 -20 -13 -22 -19 -13 -33 7 -12 8
-41 1 -95 -11 -94 -3 -112 47 -102 33 6 60 22 60 36 0 4 -12 5 -26 2 l-27 -5
8 68 c9 87 12 94 44 107 l26 11 -25 6 c-20 6 -24 12 -22 34 3 21 -1 27 -17 27
-11 0 -22 -9 -26 -20z"/>
<path d="M443 340 c-42 -25 -63 -68 -63 -129 0 -42 4 -53 26 -70 36 -28 86
-27 121 3 34 29 27 42 -12 22 -31 -16 -65 -6 -65 19 0 8 0 18 -1 22 0 4 20 13
45 20 25 7 52 23 61 35 49 71 -31 128 -112 78z m65 -36 c2 -14 -7 -30 -25 -44
l-28 -22 -3 25 c-7 55 48 94 56 41z"/>
<path d="M853 353 c-25 -5 -29 -13 -14 -28 6 -6 5 -45 -3 -102 l-13 -93 33 0
32 0 7 70 c7 73 32 120 62 120 14 0 15 -12 10 -95 l-6 -95 29 0 c33 0 34 3 45
100 6 54 26 90 50 90 21 0 24 -24 13 -98 -6 -38 -8 -77 -5 -86 7 -18 39 -21
68 -6 23 13 25 30 3 30 -12 0 -15 6 -10 25 3 13 9 51 12 83 5 47 3 61 -10 75
-23 23 -58 21 -88 -3 -25 -19 -26 -19 -43 0 -21 24 -54 26 -81 5 -25 -19 -34
-19 -34 0 0 15 -13 17 -57 8z"/>
<path d="M1238 353 c-19 -5 -25 -23 -8 -23 7 0 10 -34 8 -97 l-3 -97 28 -10
c22 -8 35 -7 57 6 25 14 29 14 44 0 12 -12 22 -14 43 -6 30 10 43 34 18 34
-11 0 -15 6 -11 18 2 9 7 44 11 77 4 33 9 70 12 83 5 21 3 23 -28 20 l-34 -3
-11 -89 c-9 -66 -17 -93 -30 -103 -39 -29 -47 4 -31 135 l8 62 -28 -1 c-15 -1
-36 -3 -45 -6z"/>
<path d="M1508 353 c-30 -5 -34 -13 -18 -29 8 -8 8 -36 0 -95 -5 -46 -10 -87
-10 -91 0 -5 13 -8 29 -8 28 0 30 3 36 47 8 69 27 125 48 137 25 16 36 -7 29
-58 -4 -22 -7 -61 -7 -86 0 -41 2 -45 25 -48 14 -2 34 4 45 13 18 13 18 16 4
25 -14 8 -15 18 -7 60 5 28 8 68 6 88 -4 48 -43 65 -87 39 -25 -15 -30 -15
-35 -2 -3 8 -11 14 -18 14 -7 -1 -25 -4 -40 -6z"/>
<path d="M2052 340 c-64 -39 -83 -161 -32 -202 50 -40 142 -11 173 55 55 116
-36 211 -141 147z m82 -26 c11 -28 6 -94 -8 -129 -16 -37 -49 -48 -60 -19 -11
29 -6 105 9 134 17 32 49 40 59 14z"/>
<path d="M2403 340 c-42 -25 -63 -68 -63 -125 0 -59 32 -95 84 -95 36 0 98 41
83 56 -4 4 -13 2 -19 -4 -21 -21 -68 -15 -77 11 -11 29 -8 33 35 42 70 13 107
81 66 118 -25 23 -70 21 -109 -3z m65 -36 c3 -22 -43 -68 -58 -59 -8 5 2 54
15 75 11 18 40 7 43 -16z"/>
<path d="M2600 353 c-8 -2 -21 -7 -29 -9 -11 -3 -11 -7 -1 -19 12 -15 11 -44
-7 -157 -5 -37 -5 -38 25 -38 33 0 34 2 48 103 8 57 33 93 59 83 14 -5 17 -14
12 -49 -21 -149 -22 -135 7 -143 18 -4 35 0 54 12 23 15 24 19 9 22 -16 3 -17
12 -11 88 7 92 -1 114 -41 114 -12 0 -34 -9 -49 -21 l-26 -20 0 20 c0 21 -17
26 -50 14z"/>
<path d="M3109 338 c-68 -46 -91 -147 -44 -193 26 -27 41 -30 80 -15 18 7 31
6 45 -2 14 -9 25 -9 44 0 29 13 35 32 10 32 -13 0 -15 7 -11 38 3 20 9 64 12
97 l7 60 -54 3 c-43 2 -61 -2 -89 -20z m75 -50 c-19 -126 -18 -123 -44 -123
-24 0 -25 3 -25 62 0 66 20 103 57 103 16 0 17 -5 12 -42z"/>
<path d="M3418 353 c-30 -5 -34 -13 -17 -30 9 -9 -4 -145 -26 -275 -4 -25 -2
-28 25 -28 30 0 35 8 42 70 2 19 11 26 41 32 78 16 117 67 117 152 0 70 -46
105 -101 76 -13 -7 -19 -7 -19 0 0 10 -11 11 -62 3z m116 -59 c8 -32 -2 -92
-20 -121 -9 -14 -24 -23 -40 -23 -22 0 -25 4 -21 23 3 12 9 48 12 80 7 57 24
80 51 70 7 -2 15 -16 18 -29z"/>
<path d="M3699 337 c-68 -45 -91 -146 -44 -192 26 -27 54 -31 85 -15 14 7 25
7 39 -2 15 -9 25 -9 45 0 28 13 35 32 11 32 -18 0 -18 2 -2 110 l13 85 -57 3
c-44 2 -63 -3 -90 -21z m75 -49 c-19 -126 -18 -123 -44 -123 -24 0 -25 3 -25
62 0 66 20 103 57 103 16 0 17 -5 12 -42z"/>
<path d="M4053 353 c-25 -5 -29 -13 -12 -30 8 -8 8 -33 0 -94 -6 -45 -11 -86
-11 -91 0 -4 13 -8 29 -8 32 0 28 -10 47 120 5 37 8 40 39 40 30 0 33 3 37 35
5 42 -13 47 -49 13 l-23 -21 0 21 c0 22 -8 24 -57 15z"/>
<path d="M4238 353 c-29 -5 -33 -10 -20 -30 5 -7 3 -51 -3 -98 -12 -90 -8
-105 30 -105 20 1 55 22 55 34 0 3 -7 6 -16 6 -13 0 -15 7 -10 32 3 17 9 62
13 100 6 73 9 70 -49 61z"/>
<path d="M4403 344 c-38 -19 -73 -84 -73 -136 0 -64 51 -104 99 -78 12 6 29 5
50 -3 28 -10 34 -9 53 11 21 20 21 22 4 22 -16 0 -18 6 -12 50 3 28 9 71 12
98 l6 47 -54 2 c-33 2 -65 -3 -85 -13z m62 -91 c-7 -84 -13 -97 -41 -91 -15 2
-20 14 -22 55 -4 63 18 113 49 113 20 0 21 -3 14 -77z"/>
</g>
</svg>
