<?xml version="1.0" standalone="no"?>
<!DOCTYPE svg PUBLIC "-//W3C//DTD SVG 20010904//EN"
 "http://www.w3.org/TR/2001/REC-SVG-20010904/DTD/svg10.dtd">
<svg version="1.0" xmlns="http://www.w3.org/2000/svg"
 width="323.000000pt" height="305.000000pt" viewBox="0 0 323.000000 305.000000"
 preserveAspectRatio="xMidYMid meet">

<g transform="translate(0.000000,305.000000) scale(0.100000,-0.100000)"
fill="#000000" stroke="none">
<path d="M0 1525 l0 -1525 1615 0 1615 0 0 1525 0 1525 -1615 0 -1615 0 0
-1525z m1403 1320 c2 -22 23 -84 46 -138 38 -91 41 -103 41 -191 0 -53 4 -98
10 -101 6 -3 10 -21 10 -39 0 -19 7 -39 15 -46 9 -7 14 -19 11 -26 -3 -7 -1
-16 4 -19 15 -10 49 32 54 67 5 31 26 460 26 521 0 15 4 27 9 27 5 0 11 -69
15 -152 10 -238 30 -485 38 -465 4 9 14 17 23 17 10 0 17 14 21 40 4 22 10 40
15 40 5 0 9 -4 9 -10 0 -5 5 -10 10 -10 13 0 13 33 -1 63 -9 21 -6 38 16 98
34 92 42 131 49 239 6 84 19 118 35 92 4 -7 7 -66 5 -131 -2 -92 -7 -133 -25
-187 -13 -38 -26 -71 -30 -74 -9 -7 -29 -163 -32 -240 -2 -64 -2 -64 28 -71
40 -8 133 -64 168 -100 15 -16 30 -29 34 -29 10 0 93 89 93 100 0 20 -26 9
-63 -26 -21 -20 -40 -34 -43 -32 -7 8 79 88 94 88 7 0 16 8 19 18 11 29 313
314 339 320 32 8 9 -28 -81 -123 -52 -55 -94 -106 -95 -112 0 -7 -5 -13 -11
-13 -13 0 -64 -53 -73 -75 -6 -17 -32 -20 -41 -5 -4 6 -11 7 -17 4 -6 -4 -5
-9 3 -15 11 -6 6 -17 -21 -44 -33 -35 -34 -37 -17 -50 22 -16 56 -5 97 31 24
21 205 114 222 114 15 0 70 42 128 96 38 36 66 54 92 58 l38 7 -25 -26 c-14
-14 -30 -25 -35 -25 -4 0 -18 -16 -30 -34 -11 -19 -39 -50 -62 -68 -22 -18
-47 -40 -56 -48 -20 -19 -47 -32 -102 -50 -57 -18 -113 -56 -168 -113 l-44
-45 31 -13 c35 -16 39 -27 14 -35 -10 -3 -28 -10 -40 -16 -26 -13 -54 0 -29
14 9 5 16 16 16 25 0 11 -6 14 -25 9 -14 -4 -25 -2 -25 3 0 7 63 64 92 82 6 4
9 12 7 18 -3 8 -19 1 -45 -17 -54 -40 -82 -48 -80 -25 0 12 -7 19 -21 21 -30
4 -29 -12 5 -57 15 -20 36 -53 47 -73 21 -41 40 -47 71 -23 10 8 27 15 37 15
9 0 17 4 17 9 0 5 12 14 28 19 l27 10 -24 9 c-23 9 -23 10 20 30 24 11 60 26
79 33 44 15 80 30 102 41 10 5 27 9 37 9 11 0 23 5 26 10 3 6 16 10 28 10 13
0 31 6 42 13 11 8 41 20 68 28 26 7 47 17 47 21 0 12 48 10 55 -2 3 -6 -2 -13
-12 -16 -34 -11 -168 -78 -185 -93 -10 -8 -18 -11 -18 -8 0 5 -131 -50 -172
-73 -10 -6 -25 -10 -33 -10 -8 0 -15 -4 -15 -9 0 -5 -20 -15 -45 -22 -39 -12
-45 -17 -45 -41 0 -31 20 -37 39 -14 8 10 23 13 47 9 20 -3 40 -1 49 7 11 9
58 14 143 16 114 2 170 12 207 36 6 3 32 9 58 13 46 7 48 6 37 -11 -12 -19
-119 -74 -145 -74 -7 0 -17 -4 -20 -10 -3 -5 -17 -10 -30 -10 -13 0 -27 -4
-30 -10 -4 -6 -53 -10 -115 -10 -75 0 -117 -4 -137 -15 -15 -8 -42 -20 -59
-26 -23 -9 -30 -18 -26 -31 6 -23 -34 -25 -62 -3 -31 23 -36 18 -36 -36 0 -48
1 -51 23 -45 12 3 58 6 102 7 89 1 75 12 -28 24 -74 8 -65 20 16 20 34 1 114
4 177 9 87 6 140 4 217 -8 57 -9 130 -16 164 -16 33 0 70 -5 81 -11 21 -11 21
-12 -3 -25 -15 -8 -18 -13 -9 -14 8 0 54 -4 102 -9 73 -8 91 -14 117 -37 17
-15 31 -35 31 -44 0 -9 6 -22 13 -29 18 -18 11 -1304 -8 -1341 -21 -40 -56
-66 -110 -81 -73 -20 -2773 -20 -2854 0 -50 13 -55 16 -77 65 l-23 51 2 665
c3 645 3 666 22 688 28 34 64 50 126 58 30 4 59 10 64 15 13 10 102 12 220 5
90 -4 90 -4 45 10 -25 8 -76 17 -114 19 -75 6 -86 9 -69 26 11 11 367 13 410
3 13 -4 35 -3 50 1 l28 7 -24 9 c-18 7 -21 12 -12 22 16 20 -7 61 -44 76 -16
7 -46 20 -65 29 -24 12 -70 18 -148 20 -61 2 -112 8 -112 13 0 5 -9 9 -19 9
-19 0 -35 23 -24 34 11 10 271 7 278 -4 3 -5 13 -10 20 -10 8 0 38 -11 67 -24
29 -13 69 -27 88 -30 139 -24 180 -20 180 19 0 20 -5 25 -25 25 -14 0 -25 5
-25 10 0 6 -7 10 -15 10 -15 0 -47 15 -75 36 -8 6 -28 14 -44 18 -17 4 -63 23
-103 42 -40 19 -78 34 -84 34 -5 0 -20 6 -32 14 -12 8 -42 25 -67 39 -24 13
-46 30 -48 36 -5 14 34 15 43 1 3 -5 15 -10 26 -10 10 0 27 -4 37 -9 9 -5 49
-21 87 -36 39 -15 78 -31 87 -36 10 -5 24 -9 32 -9 7 0 19 -7 26 -15 7 -8 23
-15 36 -15 12 0 26 -4 29 -10 3 -5 15 -10 26 -10 10 0 27 -4 37 -9 9 -5 26
-13 37 -17 18 -7 17 -8 -7 -12 -48 -6 -38 -17 59 -66 31 -15 29 -26 -4 -26
l-28 0 23 -18 c31 -24 19 -32 -52 -32 -67 0 -68 -17 -1 -22 37 -3 40 -5 40
-33 0 -23 4 -30 20 -30 13 0 20 7 21 20 0 11 4 27 8 36 4 9 8 33 9 53 1 19 8
38 15 41 28 11 9 32 -40 44 -51 14 -51 14 -28 31 24 18 24 55 0 55 -8 0 -19 6
-23 13 -4 6 -15 12 -23 12 -17 0 -65 41 -148 129 -46 48 -82 73 -146 105 -97
47 -122 66 -111 84 6 10 14 10 37 -2 16 -8 49 -20 74 -27 25 -7 52 -18 60 -25
8 -6 25 -15 37 -18 12 -4 43 -30 68 -58 55 -62 121 -113 157 -121 15 -4 33
-14 42 -22 8 -8 22 -15 31 -15 19 0 65 -29 65 -41 0 -16 -23 -10 -77 18 -29
15 -56 23 -60 19 -4 -5 -3 -11 4 -13 6 -2 37 -22 69 -45 l58 -40 16 23 c18 29
108 119 136 136 25 16 114 59 137 67 13 4 16 12 11 33 -8 33 -24 54 -24 32 0
-8 -6 -24 -14 -34 -13 -18 -15 -16 -35 28 -12 26 -26 47 -31 47 -15 0 -12 -50
4 -66 8 -7 12 -23 9 -34 -7 -26 -23 -16 -23 15 0 13 -4 27 -10 30 -5 3 -10 17
-10 30 0 13 5 27 10 30 6 3 10 16 10 28 0 16 -3 18 -12 9 -20 -20 -31 -14 -25
13 2 14 2 23 -1 20 -10 -10 -32 18 -32 41 0 13 -4 24 -10 24 -5 0 -10 11 -10
24 0 14 -4 28 -10 31 -5 3 -10 16 -10 29 0 12 -4 26 -9 31 -5 6 -17 33 -27 60
-49 141 -60 171 -68 183 -5 8 -4 18 2 24 8 8 19 -7 37 -48 15 -32 31 -66 36
-74 5 -8 12 -22 15 -30 4 -8 19 -43 35 -78 16 -34 29 -68 29 -75 0 -6 16 -38
35 -70 19 -32 35 -65 35 -73 0 -18 21 -57 38 -67 6 -4 12 -15 12 -23 0 -11 4
-12 18 -3 13 8 17 26 18 71 1 37 -1 55 -7 47 -13 -22 -17 3 -27 161 -9 137
-16 168 -53 242 -11 21 -12 112 -2 122 11 11 21 -7 26 -49z m701 -60 c3 -8 -1
-20 -8 -27 -7 -7 -15 -30 -19 -51 -3 -21 -13 -52 -21 -69 -9 -17 -16 -39 -16
-49 0 -10 -4 -20 -8 -23 -4 -3 -14 -28 -22 -56 -8 -28 -20 -56 -27 -62 -7 -6
-13 -19 -13 -29 0 -10 -4 -21 -10 -24 -5 -3 -10 -17 -10 -31 0 -13 -4 -32 -9
-42 -35 -68 -35 -72 -17 -90 19 -19 12 -25 68 56 13 18 56 67 96 110 66 69
142 185 142 217 0 7 7 15 15 19 8 3 15 12 15 21 0 8 3 15 8 15 4 0 17 3 30 6
30 8 28 -6 -8 -59 -16 -25 -30 -54 -30 -65 0 -12 -4 -24 -10 -27 -5 -3 -10
-13 -10 -22 0 -19 -58 -97 -129 -172 -46 -50 -111 -161 -111 -193 0 -7 -12
-21 -25 -31 -24 -17 -25 -17 -25 0 0 10 9 29 20 43 21 27 26 60 10 60 -5 0
-10 -4 -10 -10 0 -10 -55 -70 -65 -70 -3 0 -5 17 -6 38 -1 29 -2 32 -7 14 -10
-33 -26 -32 -30 1 -2 15 1 27 7 27 6 0 11 11 11 24 0 14 5 28 10 31 6 3 10 17
10 31 0 13 -4 24 -10 24 -5 0 -10 -9 -10 -20 0 -11 -4 -20 -10 -20 -13 0 -13
15 -1 38 17 29 71 150 71 156 0 3 20 48 45 100 25 53 45 102 45 111 0 8 5 15
10 15 6 0 10 6 10 14 0 8 7 22 16 30 8 9 12 20 9 26 -7 11 2 30 15 30 4 0 10
-7 14 -15z m-1063 -197 c46 -46 92 -99 101 -118 9 -19 32 -69 51 -110 25 -54
52 -92 96 -135 33 -33 61 -68 61 -77 0 -25 -5 -23 -39 13 -40 41 -59 34 -27
-10 28 -37 25 -55 -5 -46 -15 5 -19 1 -19 -15 0 -18 -3 -19 -21 -9 l-21 11 21
14 c22 16 29 44 11 44 -5 0 -10 6 -10 13 0 7 -15 31 -33 53 -29 35 -55 83 -92
169 -38 90 -63 128 -121 184 -60 58 -81 101 -51 101 8 0 52 -37 98 -82z m-7
-291 c44 -42 83 -77 88 -77 4 0 8 -11 8 -25 0 -18 5 -25 18 -25 24 0 58 -35
43 -45 -6 -3 -14 1 -17 9 -4 11 -14 14 -28 10 -31 -8 -85 37 -195 164 -30 34
-78 86 -107 116 -53 53 -60 66 -48 79 7 7 117 -88 238 -206z m826 -35 c0 -5
-7 -17 -15 -28 -8 -10 -15 -30 -15 -43 0 -20 -2 -21 -15 -11 -21 18 -19 47 5
53 11 3 20 12 20 21 0 9 5 16 10 16 6 0 10 -4 10 -8z m-1360 -126 c0 -11 -19
-15 -25 -6 -3 5 1 10 9 10 9 0 16 -2 16 -4z m714 -98 c-3 -5 -12 -1 -20 9 -20
27 -17 39 6 18 11 -10 17 -22 14 -27z"/>
<path d="M1621 2329 c-1 -31 -4 -77 -7 -103 -6 -38 -4 -46 10 -46 13 0 16 12
15 78 -1 96 -16 156 -18 71z"/>
<path d="M1484 2296 c-4 -9 -2 -22 5 -29 6 -6 11 -28 11 -48 0 -21 3 -40 8
-42 4 -2 26 -2 50 1 38 4 42 6 36 26 -11 36 -22 40 -35 13 -14 -31 -29 -26
-29 8 0 14 -9 39 -20 57 -16 27 -20 29 -26 14z"/>
<path d="M1737 2273 c-2 -5 -8 -26 -11 -47 l-7 -39 -23 38 -23 38 -7 -38 c-4
-20 -6 -38 -4 -40 2 -1 22 -5 46 -9 l42 -6 0 55 c0 52 -3 64 -13 48z"/>
<path d="M965 1940 c-3 -5 1 -10 9 -10 8 0 18 5 21 10 3 6 -1 10 -9 10 -8 0
-18 -4 -21 -10z"/>
<path d="M2280 1940 c0 -5 5 -10 10 -10 6 0 10 5 10 10 0 6 -4 10 -10 10 -5 0
-10 -4 -10 -10z"/>
<path d="M1127 1926 c-7 -18 1 -26 25 -26 13 0 18 6 16 17 -4 22 -34 29 -41 9z"/>
<path d="M1370 1840 c-20 -16 -22 -20 -7 -20 9 0 17 5 17 10 0 6 32 10 75 10
67 0 79 -3 103 -25 32 -30 47 -32 32 -5 -6 11 -17 20 -24 20 -8 0 -19 7 -26
15 -20 24 -138 20 -170 -5z"/>
<path d="M1699 1840 c-33 -17 -56 -46 -46 -57 2 -2 19 10 38 27 30 27 41 30
101 30 37 0 70 -4 73 -10 3 -5 14 -10 23 -10 12 0 7 6 -13 20 -40 26 -126 26
-176 0z"/>
<path d="M2120 1828 c0 -7 4 -19 9 -27 12 -19 43 -6 39 16 -4 21 -48 31 -48
11z"/>
<path d="M2380 1828 c0 -4 14 -8 30 -8 17 0 30 2 30 4 0 2 -13 6 -30 8 -16 3
-30 1 -30 -4z"/>
<path d="M2288 1803 c6 -2 18 -2 25 0 6 3 1 5 -13 5 -14 0 -19 -2 -12 -5z"/>
<path d="M1367 1775 c-37 -37 -7 -66 71 -68 41 -2 46 1 52 23 l6 25 7 -25 7
-25 15 25 c21 37 -1 53 -78 58 -50 3 -67 1 -80 -13z m43 -35 c0 -5 -4 -10 -10
-10 -5 0 -10 5 -10 10 0 6 5 10 10 10 6 0 10 -4 10 -10z"/>
<path d="M1743 1778 c-24 -12 -31 -42 -12 -54 6 -3 15 -1 19 6 5 8 9 5 13 -10
5 -18 12 -21 44 -18 33 3 38 6 35 26 -2 12 2 22 7 22 6 0 11 -9 11 -20 0 -24
6 -25 26 -6 21 22 17 34 -16 51 -33 17 -95 19 -127 3z"/>
<path d="M2166 1781 c-30 -6 -48 -30 -24 -32 26 -2 53 3 63 12 5 5 17 9 26 9
10 0 21 5 24 10 7 11 -41 12 -89 1z"/>
<path d="M878 1763 c6 -2 18 -2 25 0 6 3 1 5 -13 5 -14 0 -19 -2 -12 -5z"/>
<path d="M975 1681 c-73 -7 -72 -8 33 -26 17 -3 46 -8 63 -11 28 -6 30 -4 27
17 -3 27 -15 29 -123 20z"/>
<path d="M658 1623 c12 -2 30 -2 40 0 9 3 -1 5 -23 4 -22 0 -30 -2 -17 -4z"/>
<path d="M871 1034 c0 -11 3 -14 6 -6 3 7 2 16 -1 19 -3 4 -6 -2 -5 -13z"/>
<path d="M2640 1010 c0 -6 7 -10 15 -10 8 0 15 2 15 4 0 2 -7 6 -15 10 -8 3
-15 1 -15 -4z"/>
</g>
</svg>
