<?xml version="1.0" standalone="no"?>
<!DOCTYPE svg PUBLIC "-//W3C//DTD SVG 20010904//EN"
 "http://www.w3.org/TR/2001/REC-SVG-20010904/DTD/svg10.dtd">
<svg version="1.0" xmlns="http://www.w3.org/2000/svg"
 width="150.000000pt" height="73.000000pt" viewBox="0 0 150.000000 73.000000"
 preserveAspectRatio="xMidYMid meet">

<g transform="translate(0.000000,73.000000) scale(0.100000,-0.100000)"
fill="#000000" stroke="none">
<path d="M60 335 l0 -235 60 0 60 0 0 105 0 105 90 0 90 0 0 -105 0 -105 60 0
60 0 0 235 0 235 -60 0 -60 0 0 -85 0 -85 -90 0 -90 0 0 85 0 85 -60 0 -60 0
0 -235z"/>
<path d="M550 525 l0 -45 70 0 70 0 0 -190 0 -190 60 0 60 0 0 190 0 190 75 0
75 0 0 45 0 45 -205 0 -205 0 0 -45z"/>
<path d="M1025 448 c24 -68 61 -172 83 -233 l39 -110 69 -3 69 -3 79 223 c44
123 81 229 84 236 3 9 -12 12 -56 12 l-60 0 -48 -137 c-26 -76 -52 -149 -57
-163 -8 -22 -16 -4 -65 138 l-56 162 -63 0 -62 0 44 -122z"/>
</g>
</svg>
