<?xml version="1.0" standalone="no"?>
<!DOCTYPE svg PUBLIC "-//W3C//DTD SVG 20010904//EN"
 "http://www.w3.org/TR/2001/REC-SVG-20010904/DTD/svg10.dtd">
<svg version="1.0" xmlns="http://www.w3.org/2000/svg"
 width="194.000000pt" height="210.000000pt" viewBox="0 0 194.000000 210.000000"
 preserveAspectRatio="xMidYMid meet">

<g transform="translate(0.000000,210.000000) scale(0.100000,-0.100000)"
fill="#000000" stroke="none">
<path d="M0 1050 l0 -1050 970 0 970 0 0 1050 0 1050 -970 0 -970 0 0 -1050z
m1162 919 c114 -24 218 -100 233 -171 10 -44 -12 -94 -62 -137 -84 -74 -236
-110 -380 -90 -109 15 -174 42 -232 97 -47 45 -51 51 -51 96 0 77 35 123 130
172 81 41 249 57 362 33z m-111 -540 c63 -22 118 -44 122 -48 5 -5 -27 -38
-71 -74 -43 -36 -84 -72 -90 -80 -10 -11 7 -31 86 -102 53 -49 97 -94 97 -100
0 -11 -114 -119 -167 -158 -16 -12 -28 -24 -28 -27 0 -4 45 -46 100 -94 55
-47 100 -90 100 -95 0 -5 -45 -49 -99 -97 -81 -73 -97 -91 -88 -103 7 -8 47
-45 89 -82 53 -47 73 -70 65 -77 -17 -13 -206 -82 -225 -82 -8 0 -38 21 -67
48 -28 26 -90 81 -138 122 -48 41 -87 78 -87 82 0 4 45 46 100 94 55 48 100
91 100 95 0 4 -45 46 -100 94 -55 47 -100 90 -100 95 0 5 9 15 20 23 11 8 53
43 92 78 39 35 75 65 79 67 5 2 9 8 9 12 0 11 -92 99 -153 145 -26 20 -47 40
-47 45 0 6 277 258 286 260 0 0 52 -18 115 -41z m-442 -7 c58 -20 106 -41 107
-47 1 -5 -35 -41 -81 -80 -46 -38 -84 -75 -84 -82 -1 -6 34 -40 77 -76 42 -36
87 -76 100 -90 l23 -24 -100 -89 c-56 -49 -101 -93 -100 -99 0 -5 45 -48 100
-95 54 -47 99 -87 99 -90 0 -3 -45 -45 -100 -93 -55 -48 -100 -91 -100 -96 0
-4 38 -41 85 -82 47 -41 85 -76 85 -79 0 -3 -12 -10 -27 -16 -16 -6 -67 -26
-115 -44 l-88 -33 -53 49 c-30 27 -93 83 -140 124 -47 41 -86 78 -86 81 -1 3
44 45 99 94 55 48 100 91 100 95 0 4 -45 47 -100 95 -55 47 -100 90 -100 94 0
4 24 27 52 50 59 48 148 130 148 136 0 5 -78 78 -145 135 -27 24 -51 46 -53
50 -4 10 269 250 283 250 6 0 57 -17 114 -38z"/>
</g>
</svg>
