<?xml version="1.0" standalone="no"?>
<!DOCTYPE svg PUBLIC "-//W3C//DTD SVG 20010904//EN"
 "http://www.w3.org/TR/2001/REC-SVG-20010904/DTD/svg10.dtd">
<svg version="1.0" xmlns="http://www.w3.org/2000/svg"
 width="512.000000pt" height="512.000000pt" viewBox="0 0 512.000000 512.000000"
 preserveAspectRatio="xMidYMid meet">

<g transform="translate(0.000000,512.000000) scale(0.100000,-0.100000)"
fill="#000000" stroke="none">
<path d="M660 3400 l0 -60 130 0 130 0 0 -780 0 -780 -130 0 -130 0 0 -60 0
-60 790 0 790 0 0 355 0 355 -58 0 -59 0 -6 -97 c-13 -215 -93 -350 -251 -424
-84 -39 -176 -58 -323 -66 l-123 -6 0 781 0 782 145 0 145 0 0 60 0 60 -525 0
-525 0 0 -60z"/>
<path d="M2470 3400 l0 -60 31 0 c100 0 189 -70 208 -162 8 -39 11 -237 9
-664 -3 -586 -4 -611 -23 -649 -28 -55 -71 -77 -161 -83 l-74 -5 0 -58 0 -59
325 0 325 0 0 60 0 60 -60 0 c-145 0 -208 37 -221 132 -10 73 -11 1198 -1
1198 5 0 268 -326 586 -725 l577 -725 104 0 104 0 3 788 3 787 22 31 c31 43
84 66 165 72 l68 5 0 58 0 59 -325 0 -325 0 0 -60 0 -60 63 0 c87 0 159 -23
191 -61 l26 -31 0 -430 0 -431 -427 536 -428 536 -382 0 -383 1 0 -60z"/>
</g>
</svg>
