<?xml version="1.0" standalone="no"?>
<!DOCTYPE svg PUBLIC "-//W3C//DTD SVG 20010904//EN"
 "http://www.w3.org/TR/2001/REC-SVG-20010904/DTD/svg10.dtd">
<svg version="1.0" xmlns="http://www.w3.org/2000/svg"
 width="960.000000pt" height="540.000000pt" viewBox="0 0 960.000000 540.000000"
 preserveAspectRatio="xMidYMid meet">

<g transform="translate(0.000000,540.000000) scale(0.100000,-0.100000)"
fill="#000000" stroke="none">
<path d="M0 2700 l0 -2700 4800 0 4800 0 0 2700 0 2700 -4800 0 -4800 0 0
-2700z m8213 1642 c82 -5 152 -13 155 -19 4 -6 33 -13 65 -17 31 -4 57 -12 57
-17 0 -5 11 -9 25 -9 14 0 42 -7 62 -15 19 -8 46 -15 58 -15 13 0 25 -7 29
-15 3 -8 13 -15 23 -15 10 0 27 -7 37 -15 11 -8 28 -15 39 -15 10 0 16 -4 13
-9 -3 -5 6 -12 20 -15 14 -4 36 -18 48 -31 13 -14 30 -25 39 -25 8 0 17 -7 21
-15 3 -8 12 -15 21 -15 8 0 15 -7 15 -15 0 -8 5 -15 10 -15 11 0 50 -36 50
-46 0 -4 14 -20 30 -36 17 -15 30 -32 30 -38 0 -5 11 -21 25 -36 14 -15 28
-38 31 -51 4 -13 10 -23 15 -23 5 0 9 -8 9 -18 0 -10 9 -35 20 -57 11 -22 20
-50 20 -63 0 -13 4 -20 10 -17 6 4 10 -18 10 -57 0 -37 5 -69 12 -76 18 -18
18 -256 1 -273 -8 -8 -13 -38 -13 -71 0 -32 -4 -58 -9 -58 -5 0 -12 -12 -15
-27 -8 -34 -38 -97 -48 -101 -5 -2 -8 -14 -8 -26 0 -12 -13 -33 -30 -46 -16
-14 -29 -32 -30 -41 0 -9 -7 -19 -15 -23 -8 -3 -15 -12 -15 -21 0 -8 -7 -15
-15 -15 -8 0 -15 -4 -15 -10 0 -10 -36 -50 -45 -50 -3 0 -23 -18 -45 -40 -22
-22 -46 -40 -54 -40 -8 0 -19 -6 -23 -13 -4 -8 -15 -17 -23 -20 -8 -4 -28 -16
-45 -27 -16 -11 -40 -24 -52 -30 -13 -5 -23 -14 -23 -20 0 -5 -11 -10 -24 -10
-13 0 -26 -3 -28 -7 -5 -12 -85 -53 -102 -53 -9 0 -16 -4 -16 -10 0 -5 -10
-10 -23 -10 -13 0 -28 -5 -35 -12 -12 -12 -71 -36 -112 -45 -14 -3 -34 -12
-45 -19 -11 -8 -27 -14 -36 -14 -9 0 -30 -7 -45 -15 -16 -8 -39 -15 -51 -15
-12 0 -24 -4 -28 -9 -3 -6 -26 -13 -50 -17 -25 -3 -45 -10 -45 -15 0 -5 -12
-9 -26 -9 -14 0 -38 -6 -52 -14 -15 -8 -44 -18 -64 -21 -21 -3 -38 -10 -38
-15 0 -6 -12 -10 -27 -10 -16 0 -37 -7 -47 -15 -11 -8 -30 -15 -43 -15 -13 0
-26 -7 -29 -15 -4 -8 -18 -15 -34 -15 -16 0 -30 -3 -32 -7 -5 -12 -66 -53 -78
-53 -5 0 -10 -4 -10 -10 0 -5 -9 -10 -20 -10 -11 0 -20 -4 -20 -9 0 -5 -15
-25 -32 -45 -62 -66 -88 -113 -88 -155 0 -35 19 -42 27 -11 3 11 9 20 14 20
14 0 49 33 49 47 0 7 7 13 16 13 8 0 12 5 9 10 -3 5 3 10 13 10 11 0 25 6 31
14 7 8 23 17 36 20 14 4 25 11 25 16 0 6 14 10 31 10 17 0 38 7 46 16 14 13
39 15 161 12 105 -2 147 -6 150 -15 2 -8 20 -13 43 -13 21 0 39 -4 39 -10 0
-5 11 -12 25 -16 13 -3 29 -12 36 -20 6 -8 20 -14 30 -14 11 0 19 -3 19 -7 0
-5 18 -19 40 -33 22 -13 40 -28 40 -32 0 -4 6 -8 13 -8 6 -1 28 -14 47 -30 19
-17 38 -30 43 -30 9 0 30 -16 55 -42 9 -10 22 -18 29 -18 7 0 13 -4 13 -8 0
-5 30 -23 68 -40 53 -25 81 -32 130 -32 34 0 62 4 62 10 0 5 11 12 25 16 32 8
36 54 5 54 -25 0 -120 41 -120 52 0 4 -7 8 -15 8 -8 0 -15 6 -15 14 0 8 -3 16
-7 18 -14 6 -53 67 -53 83 0 8 -4 15 -10 15 -6 0 -10 42 -10 105 0 63 4 105
10 105 6 0 10 8 10 18 0 17 8 30 50 79 5 7 10 18 10 25 0 14 81 71 118 82 12
4 22 12 22 17 0 5 18 9 39 9 22 0 43 5 46 10 8 13 115 13 115 0 0 -5 18 -10
41 -10 23 0 47 -7 55 -15 9 -8 24 -15 33 -15 10 0 24 -7 31 -15 7 -8 16 -15
21 -15 17 0 129 -120 135 -145 3 -14 10 -25 14 -25 5 0 11 -13 15 -30 4 -17
11 -30 16 -30 5 0 9 -17 9 -38 0 -21 7 -47 15 -60 23 -32 24 -324 1 -367 -9
-16 -16 -45 -16 -62 0 -18 -4 -33 -10 -33 -5 0 -10 -8 -10 -17 -1 -27 -45
-124 -53 -117 -4 4 -7 0 -7 -10 0 -17 -38 -78 -52 -84 -5 -2 -8 -8 -8 -13 0
-22 -137 -159 -159 -159 -5 0 -11 -6 -14 -13 -2 -7 -25 -23 -51 -35 -25 -13
-48 -27 -51 -33 -4 -5 -15 -9 -26 -9 -10 0 -19 -4 -19 -10 0 -5 -27 -12 -60
-16 -33 -4 -60 -11 -60 -15 0 -12 -217 -12 -224 0 -3 5 -31 11 -63 13 -31 3
-59 10 -61 16 -2 7 -14 12 -26 12 -12 0 -31 7 -42 15 -10 8 -27 15 -36 15 -10
0 -18 3 -18 8 0 4 -24 18 -52 32 -29 13 -57 30 -61 37 -4 7 -15 13 -23 13 -8
0 -12 5 -9 10 3 6 0 10 -9 10 -8 0 -28 13 -44 30 -17 16 -33 30 -36 30 -3 0
-22 16 -42 35 -20 20 -49 42 -65 51 -16 8 -29 19 -29 24 0 6 -7 10 -16 10 -8
0 -12 5 -9 10 3 6 0 10 -7 10 -8 0 -21 9 -31 20 -9 11 -24 20 -32 20 -8 0 -15
5 -15 10 0 6 -9 10 -20 10 -10 0 -30 5 -43 11 -20 9 -30 8 -51 -6 -25 -16 -26
-22 -26 -104 0 -57 -5 -96 -15 -115 -8 -15 -15 -34 -15 -42 0 -18 -90 -114
-106 -114 -8 0 -14 -4 -14 -9 0 -5 -10 -13 -22 -17 -13 -4 -26 -11 -29 -16 -3
-5 -25 -12 -48 -15 -22 -3 -41 -10 -41 -14 0 -12 -207 -12 -212 0 -1 5 -23 11
-47 15 -25 3 -47 10 -50 15 -4 5 -19 13 -34 16 -15 4 -27 11 -27 16 0 5 -6 9
-13 9 -8 0 -22 9 -32 20 -10 11 -22 17 -26 14 -5 -3 -9 0 -9 5 0 14 -37 51
-50 51 -5 0 -10 7 -10 15 0 8 -4 15 -10 15 -5 0 -12 11 -16 24 -3 14 -12 27
-20 30 -8 3 -14 15 -14 26 0 11 -7 23 -15 26 -8 4 -15 17 -15 30 0 13 -4 24
-9 24 -5 0 -12 16 -16 36 -9 52 -22 30 -27 -45 -3 -37 -10 -67 -16 -69 -7 -2
-12 -17 -12 -33 0 -16 -4 -29 -10 -29 -5 0 -12 -11 -16 -25 -3 -14 -12 -25
-20 -25 -8 0 -14 -4 -14 -10 0 -15 -38 -50 -55 -50 -9 0 -18 -7 -21 -15 -4 -8
-18 -15 -33 -15 -15 0 -32 -5 -38 -11 -14 -14 -255 -14 -282 0 -11 6 -60 11
-108 11 -49 0 -115 7 -146 15 -69 18 -301 21 -344 4 -55 -21 -593 -48 -593
-30 0 6 -10 11 -21 11 -23 0 -118 86 -119 108 0 6 -4 12 -9 12 -5 0 -19 32
-31 72 -19 59 -22 86 -17 162 3 53 9 92 16 94 6 2 11 12 11 22 0 10 6 25 13
32 6 7 18 24 25 38 7 14 35 41 62 59 48 33 50 33 140 29 51 -2 95 -9 102 -16
31 -31 148 4 148 44 0 12 4 24 10 26 42 14 41 1798 -2 1798 -4 0 -8 7 -8 15 0
33 -43 46 -129 39 -44 -4 -81 -11 -81 -15 0 -5 -29 -9 -65 -9 -37 0 -65 4 -65
10 0 6 -9 10 -19 10 -11 0 -26 7 -35 15 -8 8 -19 15 -25 15 -6 0 -11 6 -11 14
0 8 -7 16 -15 20 -8 3 -15 12 -15 19 0 8 -7 20 -15 27 -8 7 -15 20 -15 30 0 9
-7 32 -16 50 -13 25 -16 52 -12 124 3 50 10 100 16 111 6 11 13 27 16 35 17
45 104 140 128 140 9 0 21 7 28 15 17 21 287 21 345 0 57 -21 346 -21 405 0
30 10 83 15 175 15 106 0 135 -3 145 -15 7 -8 19 -15 26 -15 8 0 16 -11 20
-25 3 -14 14 -29 23 -34 15 -9 17 -109 23 -1158 3 -631 10 -1169 15 -1196 5
-28 19 -61 37 -82 25 -30 36 -35 71 -35 22 0 46 5 52 11 7 7 56 14 111 17 81
4 101 2 114 -12 9 -9 22 -16 28 -16 15 0 70 -61 70 -77 0 -7 7 -13 15 -13 13
0 15 21 15 133 0 78 4 137 10 143 6 6 13 35 17 65 3 30 12 63 19 74 8 11 14
26 14 35 0 21 91 200 102 200 4 0 8 6 8 13 0 7 14 29 30 47 17 18 30 40 30 47
0 7 3 12 8 11 10 -4 72 59 72 72 0 6 8 14 18 17 9 4 25 15 35 26 9 11 17 17
17 13 0 -4 11 4 24 18 13 15 26 26 30 26 4 0 20 13 36 30 16 16 36 30 44 30 7
0 16 7 20 15 3 8 10 15 16 15 6 0 18 7 26 15 9 8 24 15 35 15 10 0 19 4 19 9
0 4 20 19 45 32 25 13 45 27 45 31 0 5 11 8 25 8 14 0 25 4 25 9 0 5 14 14 30
20 17 5 30 15 30 20 0 6 11 11 25 11 14 0 25 3 25 8 0 4 16 13 35 20 19 6 51
18 70 24 19 7 35 16 35 20 0 5 14 8 30 8 20 0 30 5 30 15 0 8 3 14 8 14 24 -4
53 3 66 16 8 8 26 15 40 15 14 0 26 4 26 9 0 5 10 13 23 16 27 8 150 67 157
76 3 4 15 9 28 13 12 4 22 12 22 17 0 5 7 9 15 9 8 0 28 14 45 30 17 17 35 30
40 30 6 0 10 7 10 15 0 8 6 15 14 15 8 0 24 20 36 45 12 25 26 45 31 45 5 0 9
13 9 29 0 17 5 33 10 36 6 3 10 35 10 71 0 36 -4 64 -10 64 -5 0 -10 12 -10
28 0 17 -12 40 -30 60 -16 18 -30 37 -30 43 0 5 -7 9 -15 9 -8 0 -15 5 -15 10
0 6 -6 10 -14 10 -8 0 -21 6 -28 13 -26 23 -80 47 -107 47 -15 0 -32 5 -38 11
-6 6 -51 11 -106 11 -52 0 -104 -5 -115 -11 -12 -6 -36 -11 -54 -11 -18 0 -42
-7 -52 -15 -11 -8 -28 -15 -38 -15 -10 0 -18 -4 -18 -8 0 -5 -12 -14 -27 -21
-15 -7 -23 -15 -17 -19 12 -9 32 -41 47 -74 6 -16 15 -28 19 -28 4 0 8 -61 8
-135 0 -76 -4 -135 -9 -135 -5 0 -12 -13 -16 -30 -4 -16 -10 -30 -15 -30 -5 0
-12 -10 -16 -22 -3 -12 -17 -33 -30 -47 -13 -14 -24 -29 -24 -33 0 -5 -7 -8
-15 -8 -7 0 -18 -6 -22 -14 -11 -19 -121 -76 -147 -76 -12 0 -31 -7 -42 -15
-26 -20 -179 -20 -227 0 -20 8 -47 15 -61 15 -13 0 -26 7 -30 15 -3 8 -15 15
-26 15 -11 0 -20 5 -20 10 0 6 -8 14 -17 17 -23 9 -73 58 -73 72 0 6 -4 11
-10 11 -17 0 -50 39 -50 60 0 11 -4 20 -10 20 -5 0 -13 12 -16 27 -4 15 -13
38 -20 52 -8 14 -14 45 -14 68 0 23 -4 45 -10 48 -12 8 -13 122 -1 129 4 3 11
38 13 78 3 40 11 74 17 76 6 2 11 14 11 27 0 21 15 58 42 105 5 8 11 23 14 32
3 9 12 19 20 22 8 3 14 11 14 19 0 7 18 32 40 55 22 22 40 44 40 47 0 9 40 45
50 45 6 0 10 6 10 13 0 7 9 17 19 22 90 46 118 62 129 73 7 6 20 12 28 12 8 0
14 5 14 10 0 6 6 10 13 10 7 0 40 14 72 30 32 17 69 30 83 30 13 0 30 7 38 15
9 8 30 15 48 15 17 0 37 5 42 10 6 6 35 13 65 17 30 3 59 10 66 15 6 5 60 12
120 15 59 3 115 10 123 14 8 5 42 7 75 4 33 -3 127 -9 208 -13z m-6900 -77
c113 -21 751 -22 852 0 100 21 481 21 532 0 19 -8 52 -15 72 -15 20 -1 47 -7
61 -15 14 -8 36 -15 50 -15 14 0 34 -7 44 -15 11 -8 32 -15 48 -15 15 0 28 -4
28 -9 0 -5 12 -12 27 -16 15 -3 30 -10 33 -13 3 -4 36 -22 74 -41 37 -19 70
-41 73 -48 3 -7 14 -13 24 -13 10 0 19 -4 19 -9 0 -5 9 -13 20 -16 11 -3 20
-13 20 -21 0 -8 5 -14 11 -14 14 0 69 -55 69 -69 0 -6 6 -11 13 -11 14 -1 64
-67 92 -125 11 -22 26 -46 33 -53 6 -7 12 -22 12 -33 0 -10 5 -19 10 -19 6 0
10 -11 10 -24 0 -13 7 -29 15 -36 8 -7 15 -26 15 -42 0 -17 6 -44 14 -61 8
-18 18 -63 22 -102 15 -139 3 -475 -17 -475 -4 0 -11 -17 -14 -37 -3 -21 -13
-50 -21 -65 -8 -14 -14 -36 -14 -47 0 -12 -4 -21 -8 -21 -4 0 -13 -12 -19 -27
-16 -38 -55 -103 -73 -123 -8 -9 -26 -31 -40 -50 -29 -39 -130 -140 -141 -140
-4 0 -21 -12 -38 -27 -50 -46 -54 -48 -106 -74 -27 -13 -52 -26 -55 -29 -14
-14 -74 -40 -92 -40 -10 0 -26 -7 -34 -15 -9 -8 -28 -15 -43 -15 -15 0 -36 -7
-47 -15 -12 -9 -42 -14 -81 -15 -40 0 -63 -4 -65 -12 -4 -10 -85 -14 -351 -16
-282 -3 -348 -7 -358 -18 -6 -8 -18 -14 -27 -14 -12 0 -14 -16 -10 -107 3 -60
10 -128 17 -153 6 -25 13 -57 16 -72 3 -14 19 -40 36 -57 27 -27 37 -31 88
-31 32 0 62 5 69 12 18 18 254 18 259 1 3 -7 12 -13 21 -13 21 -1 62 -34 62
-50 0 -6 4 -9 8 -6 11 7 52 -48 52 -69 0 -8 4 -15 9 -15 5 0 13 -30 19 -67 10
-72 -1 -195 -18 -201 -6 -2 -10 -13 -10 -24 0 -10 -6 -25 -12 -33 -28 -29 -48
-56 -48 -64 0 -5 -8 -11 -17 -15 -10 -3 -36 -17 -58 -30 -22 -14 -51 -25 -65
-26 -15 0 -31 -5 -37 -11 -13 -13 -260 -13 -297 0 -15 6 -66 11 -114 11 -48 0
-118 7 -157 15 -89 19 -260 19 -350 0 -38 -8 -116 -15 -172 -15 -57 0 -105 -4
-108 -10 -8 -13 -322 -13 -330 0 -3 5 -19 10 -35 10 -16 0 -35 6 -42 13 -7 6
-30 21 -51 31 -20 11 -37 25 -37 33 0 7 -6 13 -14 13 -8 0 -17 11 -20 25 -4
14 -11 25 -16 25 -6 0 -10 8 -10 19 0 10 -7 32 -15 47 -20 39 -20 189 0 228 8
15 15 37 15 47 0 11 8 27 18 37 9 10 28 32 42 50 14 17 30 32 37 32 6 0 13 6
16 13 5 17 219 17 225 0 2 -8 23 -13 54 -13 42 0 55 5 74 26 13 14 24 30 24
35 0 6 5 7 10 4 6 -4 10 28 10 89 0 57 4 96 10 96 7 0 10 245 10 714 0 466 -3
717 -10 721 -6 3 -10 48 -10 100 0 87 -2 96 -26 122 -25 27 -29 28 -112 26
-47 -2 -90 -7 -96 -13 -13 -13 -116 -13 -116 0 0 6 -11 10 -25 10 -14 0 -34 9
-44 19 -11 11 -22 17 -25 14 -3 -4 -6 1 -6 10 0 10 -6 17 -14 17 -8 0 -17 11
-20 25 -4 14 -11 25 -16 25 -6 0 -10 12 -10 28 0 15 -7 36 -15 46 -21 27 -21
187 0 227 8 16 22 43 31 60 34 64 121 129 174 129 16 0 30 7 34 15 8 22 387
22 499 0z"/>
<path d="M2048 3586 c-43 -23 -65 -49 -73 -86 -4 -19 -10 -159 -12 -310 -5
-314 1 -364 47 -398 27 -20 41 -22 184 -22 106 0 156 4 158 11 2 6 27 14 56
17 28 2 57 11 63 18 6 8 24 14 40 14 16 0 29 4 29 9 0 5 10 11 23 15 27 7 127
99 127 118 0 7 7 22 15 32 8 11 15 30 15 42 0 12 7 39 16 60 13 30 15 60 11
127 -2 49 -10 94 -16 100 -6 6 -11 24 -11 39 0 15 -4 28 -9 28 -5 0 -13 9 -16
20 -7 22 -63 82 -86 94 -8 3 -32 17 -54 31 -22 13 -51 24 -65 25 -15 0 -32 6
-38 13 -20 19 -368 23 -404 3z"/>
</g>
</svg>
