<?xml version="1.0" standalone="no"?>
<!DOCTYPE svg PUBLIC "-//W3C//DTD SVG 20010904//EN"
 "http://www.w3.org/TR/2001/REC-SVG-20010904/DTD/svg10.dtd">
<svg version="1.0" xmlns="http://www.w3.org/2000/svg"
 width="105.000000pt" height="71.000000pt" viewBox="0 0 105.000000 71.000000"
 preserveAspectRatio="xMidYMid meet">

<g transform="translate(0.000000,71.000000) scale(0.100000,-0.100000)"
fill="#000000" stroke="none">
<path d="M639 605 c-67 -21 -109 -72 -109 -130 0 -89 35 -122 166 -155 69 -17
104 -37 104 -60 0 -22 -32 -43 -72 -47 -52 -6 -107 9 -160 43 -21 13 -40 24
-43 24 -3 0 -5 -26 -3 -57 3 -58 3 -58 43 -72 23 -8 80 -15 135 -15 86 -1 99
2 141 26 51 30 79 76 79 128 0 71 -54 117 -165 140 -72 15 -105 34 -105 60 0
61 153 65 219 6 27 -25 31 -20 31 38 0 52 -1 55 -32 66 -54 19 -177 22 -229 5z"/>
<path d="M60 565 l0 -45 75 0 75 0 0 -190 0 -190 60 0 60 0 0 190 0 190 70 0
70 0 0 45 0 45 -205 0 -205 0 0 -45z"/>
</g>
</svg>
