<?xml version="1.0" standalone="no"?>
<!DOCTYPE svg PUBLIC "-//W3C//DTD SVG 20010904//EN"
 "http://www.w3.org/TR/2001/REC-SVG-20010904/DTD/svg10.dtd">
<svg version="1.0" xmlns="http://www.w3.org/2000/svg"
 width="318.000000pt" height="358.000000pt" viewBox="0 0 318.000000 358.000000"
 preserveAspectRatio="xMidYMid meet">

<g transform="translate(0.000000,358.000000) scale(0.100000,-0.100000)"
fill="#000000" stroke="none">
<path d="M102 3493 c-12 -2 -26 -12 -31 -21 -5 -10 -7 -160 -4 -347 3 -181 6
-369 7 -416 2 -126 -9 -120 220 -117 l191 3 0 227 0 226 25 27 c42 45 56 48
242 49 97 1 179 4 182 7 3 3 6 79 7 168 1 139 -1 166 -15 180 -15 14 -60 16
-409 18 -216 0 -402 -1 -415 -4z"/>
<path d="M1896 1988 c1 -113 5 -211 8 -217 9 -13 43 -15 50 -2 7 11 87 2 101
-10 9 -9 -49 -14 -111 -10 -20 1 -33 -3 -37 -12 -3 -8 -7 -156 -8 -328 -2
-265 0 -314 12 -314 58 1 195 19 200 27 9 15 -2 312 -12 322 -5 6 -9 72 -9
148 0 126 2 138 19 148 12 6 22 6 26 1 5 -9 6 -96 2 -371 -2 -156 4 -228 19
-241 8 -6 77 -4 200 7 104 9 247 20 317 24 71 4 133 12 139 18 21 21 -9 241
-38 273 -8 8 -14 22 -14 29 0 7 -12 29 -27 48 -14 19 -38 58 -52 86 -16 31
-34 52 -46 54 -11 2 -31 15 -44 29 -13 14 -38 31 -55 38 -27 12 -33 11 -48 -2
-25 -22 -206 -32 -222 -12 -7 8 -29 30 -50 49 -34 32 -38 33 -47 17 -10 -17
-12 -16 -36 3 -20 16 -29 18 -40 9 -11 -9 -17 -8 -28 7 -8 10 -15 22 -15 27 0
4 -6 7 -14 7 -8 0 -16 7 -20 15 -11 30 -29 16 -23 -19 4 -25 1 -36 -10 -40
-22 -9 -23 -8 -23 22 0 15 -4 32 -9 37 -6 6 -13 57 -17 115 -3 58 -12 119 -20
135 -7 17 -15 44 -16 60 -2 17 -3 -63 -2 -177z m465 -378 c112 0 119 -1 119
-20 0 -19 -7 -20 -92 -20 -66 0 -96 -4 -108 -15 -8 -8 -36 -15 -60 -17 -49 -3
-58 9 -45 59 5 22 10 25 37 19 17 -3 84 -6 149 -6z m-381 -410 c0 -5 -5 -10
-11 -10 -5 0 -7 5 -4 10 3 6 8 10 11 10 2 0 4 -4 4 -10z"/>
<path d="M1513 1913 c9 -2 25 -2 35 0 9 3 1 5 -18 5 -19 0 -27 -2 -17 -5z"/>
<path d="M1256 1724 c-14 -13 -16 -62 -15 -387 0 -249 4 -387 12 -417 l12 -45
215 -7 c118 -4 259 -3 314 2 54 5 129 6 167 3 56 -5 76 -2 104 13 l35 19 -42
10 c-37 8 -44 14 -48 40 -5 29 -8 30 -69 36 -56 5 -68 10 -88 35 -13 16 -24
43 -25 59 -1 17 -3 44 -4 60 -1 17 -2 157 -3 313 l-1 282 -274 0 c-236 0 -277
-2 -290 -16z"/>
<path d="M2178 1013 c12 -2 30 -2 40 0 9 3 -1 5 -23 4 -22 0 -30 -2 -17 -4z"/>
<path d="M2353 1013 c64 -2 170 -2 235 0 64 1 11 3 -118 3 -129 0 -182 -2
-117 -3z"/>
<path d="M937 394 c-18 -18 -5 -34 28 -34 19 0 35 -4 35 -10 0 -11 30 -13 54
-4 21 8 20 31 -1 37 -39 11 -109 17 -116 11z"/>
</g>
</svg>
