<?xml version="1.0" standalone="no"?>
<!DOCTYPE svg PUBLIC "-//W3C//DTD SVG 20010904//EN"
 "http://www.w3.org/TR/2001/REC-SVG-20010904/DTD/svg10.dtd">
<svg version="1.0" xmlns="http://www.w3.org/2000/svg"
 width="406.000000pt" height="406.000000pt" viewBox="0 0 406.000000 406.000000"
 preserveAspectRatio="xMidYMid meet">

<g transform="translate(0.000000,406.000000) scale(0.100000,-0.100000)"
fill="#000000" stroke="none">
<path d="M1930 4023 c-224 -6 -511 -77 -740 -185 -221 -103 -389 -221 -562
-392 -197 -195 -353 -429 -448 -671 -47 -118 -77 -219 -102 -335 -45 -217 -49
-593 -8 -775 53 -234 90 -344 163 -492 135 -272 295 -479 515 -663 89 -75 205
-158 267 -191 225 -121 324 -162 500 -209 565 -150 1163 -50 1640 273 228 155
452 389 590 617 43 71 105 190 105 203 0 4 -38 7 -85 7 -51 0 -85 -4 -85 -10
0 -19 -105 -185 -177 -280 -66 -87 -210 -237 -308 -319 -106 -89 -284 -194
-480 -281 -37 -17 -206 -71 -248 -79 -23 -5 -80 -17 -127 -27 -108 -23 -510
-27 -605 -6 -33 8 -80 18 -105 23 -239 53 -456 147 -670 293 -223 152 -490
457 -592 676 -92 198 -103 228 -152 412 -35 136 -41 196 -41 433 0 195 4 256
19 325 10 47 21 101 26 120 7 36 64 210 79 245 134 304 294 523 531 726 139
118 330 233 495 298 11 5 31 13 45 19 81 33 256 79 320 84 39 3 45 0 45 -16 0
-19 -3 -20 -160 -57 -56 -13 -128 -35 -162 -50 -13 -5 -33 -13 -45 -18 -75
-30 -230 -109 -292 -148 -307 -196 -572 -516 -691 -833 -9 -25 -20 -54 -25
-65 -30 -74 -65 -214 -81 -325 -18 -121 -23 -345 -9 -450 55 -439 225 -784
534 -1083 81 -79 112 -98 128 -81 3 3 -45 56 -106 117 -177 177 -292 346 -380
559 -32 76 -44 110 -75 213 -62 200 -77 556 -31 770 49 230 115 407 207 553
18 29 33 55 33 58 0 10 118 164 176 229 128 144 329 297 503 383 125 62 158
75 266 107 50 14 104 30 121 36 52 16 84 12 84 -11 0 -11 -2 -20 -5 -20 -3 0
-49 -11 -103 -25 -364 -96 -675 -305 -903 -610 -206 -276 -319 -619 -319 -972
0 -149 20 -317 50 -413 49 -162 72 -221 118 -315 108 -217 271 -419 453 -560
40 -32 62 -42 78 -38 11 3 21 8 21 12 0 4 -30 29 -66 56 -102 77 -248 236
-328 359 -73 111 -166 290 -166 319 0 9 -4 18 -9 21 -5 3 -11 16 -14 28 -2 13
-12 50 -22 83 -109 383 -76 777 96 1130 92 189 165 292 313 440 159 159 300
253 531 355 73 33 258 81 269 70 15 -15 -2 -39 -31 -45 -361 -76 -716 -328
-926 -657 -87 -137 -171 -346 -200 -503 -40 -209 -45 -317 -23 -485 23 -165
52 -289 91 -375 7 -16 23 -55 36 -85 12 -30 31 -67 41 -82 10 -14 18 -29 18
-32 0 -13 78 -127 141 -206 71 -89 142 -161 222 -225 l47 -37 0 27 c0 22 -19
45 -90 112 -133 126 -232 257 -313 419 -123 244 -180 562 -146 809 20 147 69
345 91 370 4 5 8 15 8 22 0 23 102 219 145 278 159 218 313 356 518 465 173
92 382 158 382 121 0 -17 -12 -23 -105 -51 -41 -12 -91 -29 -110 -37 -94 -41
-205 -98 -220 -113 -3 -3 -32 -23 -64 -44 -87 -56 -272 -246 -339 -347 -85
-128 -165 -307 -195 -439 -6 -25 -17 -67 -24 -95 -18 -67 -18 -407 0 -495 38
-187 118 -388 209 -523 56 -84 136 -178 144 -170 4 5 21 67 39 138 17 72 35
144 40 160 5 17 14 49 20 72 l11 43 147 0 c159 0 172 4 172 51 0 15 5 51 11
81 6 29 14 76 19 103 5 28 13 75 19 105 27 146 48 280 43 285 -3 3 -18 5 -34
5 -33 0 -32 -1 -14 93 8 40 18 92 21 117 13 82 8 80 167 80 l141 0 -7 -87
c-11 -151 -24 -296 -31 -355 l-8 -58 90 0 90 0 6 173 c4 94 7 218 7 274 l0
102 -52 3 c-61 3 -56 -16 -44 176 6 91 4 113 -6 110 -11 -4 -32 -155 -37 -270
-1 -16 -14 -18 -128 -18 -110 0 -133 -3 -160 -20 -18 -11 -33 -26 -33 -34 0
-20 -99 -126 -118 -126 -12 0 -13 -3 -4 -12 17 -17 15 -55 -5 -62 -24 -10 -37
8 -28 41 5 15 8 31 7 34 -1 4 -3 17 -6 30 -6 36 -28 79 -40 79 -6 0 -5 -5 2
-12 22 -22 14 -55 -19 -70 -25 -12 -27 -17 -14 -22 13 -4 15 -13 11 -31 -8
-31 -99 -161 -133 -191 -49 -43 -61 -72 -56 -135 4 -44 2 -64 -11 -83 -9 -14
-16 -41 -16 -61 0 -19 -4 -35 -10 -35 -5 0 -10 -6 -10 -13 0 -20 -58 -50 -84
-43 -16 4 -33 26 -54 68 -27 55 -32 77 -38 178 -3 63 -11 121 -16 127 -7 9
-23 11 -48 7 -35 -6 -40 -4 -54 24 -25 48 -21 137 10 213 29 72 125 180 178
199 17 7 39 16 48 21 25 13 45 11 72 -6 15 -10 34 -13 54 -9 34 7 66 34 41 34
-8 0 -22 14 -31 30 -21 37 -43 37 -88 0 -63 -55 -110 -33 -89 42 11 41 60 98
85 98 14 0 44 33 44 49 0 8 -13 2 -30 -12 -40 -34 -71 -43 -84 -25 -6 8 -19
17 -29 21 -25 9 -20 38 13 71 30 29 60 30 60 1 0 -8 5 -15 10 -15 6 0 10 9 10
19 0 10 8 29 18 42 35 43 69 0 41 -53 -16 -30 -3 -33 23 -5 21 23 56 46 129
83 14 8 35 24 48 38 23 24 23 24 2 31 -12 3 -21 12 -21 19 0 19 60 76 80 76 9
0 20 3 23 7 20 19 125 45 219 53 98 8 143 20 160 44 7 10 81 13 173 6 l60 -4
7 50 c3 27 7 137 8 244 1 107 5 222 9 255 l6 60 46 3 46 3 7 -43 c3 -24 9
-168 13 -321 7 -311 -2 -280 83 -290 42 -6 148 -35 172 -48 15 -8 16 -13 5
-29 -6 -11 -25 -25 -42 -30 -16 -6 -48 -28 -69 -50 -42 -42 -53 -45 -70 -17
-8 12 -5 21 9 36 10 12 15 24 12 27 -9 9 -66 -15 -75 -32 -4 -7 -6 -54 -4
-106 l3 -93 165 3 164 3 11 -28 c6 -15 15 -53 19 -83 5 -30 20 -122 35 -205
14 -82 31 -177 36 -210 12 -67 21 -117 44 -250 9 -49 21 -117 26 -150 6 -33
14 -80 19 -105 12 -63 31 -177 39 -225 10 -65 32 -51 58 40 13 44 28 94 34
111 5 17 9 40 9 51 0 20 53 75 138 142 40 33 53 63 32 76 -5 3 -10 25 -10 48
0 37 -4 44 -32 57 -22 10 -41 32 -57 65 -18 35 -26 45 -29 32 -3 -13 -11 -17
-30 -15 -21 2 -33 15 -54 53 -14 28 -27 56 -27 63 -1 7 -9 22 -20 33 -10 11
-31 50 -46 87 -14 37 -31 75 -36 84 -15 29 -10 56 18 101 41 62 38 122 -11
212 -60 111 -75 122 -125 86 -15 -11 -39 -23 -54 -26 -23 -6 -27 -4 -27 14 0
12 7 24 15 27 22 9 18 34 -5 34 -29 0 -43 40 -22 63 14 16 14 18 -2 30 -10 7
-17 22 -14 33 3 16 13 20 62 22 52 3 65 -1 118 -32 33 -20 66 -36 73 -36 8 0
30 -9 50 -20 41 -23 46 -14 11 19 -14 13 -22 29 -19 37 10 26 105 10 116 -20
2 -6 2 -26 0 -43 -6 -35 -28 -44 -51 -21 -8 8 -12 8 -12 1 0 -9 72 -63 84 -63
3 0 6 10 8 23 2 17 9 21 28 20 l25 -3 -27 17 c-21 13 -28 26 -28 50 0 27 5 34
27 39 24 6 36 -2 113 -82 47 -49 110 -124 139 -167 62 -89 81 -97 26 -11 -111
173 -287 344 -460 446 -32 20 -121 63 -197 97 -29 13 -48 28 -48 37 0 24 42
13 156 -41 355 -167 633 -474 759 -840 90 -259 105 -589 39 -836 -41 -152 -40
-139 -10 -139 17 0 26 5 26 15 0 8 4 23 10 33 20 36 49 192 60 318 34 396 -82
775 -333 1089 -110 138 -345 329 -472 384 -11 5 -45 20 -76 35 -31 14 -78 34
-105 43 -36 14 -49 24 -49 38 0 26 17 23 120 -17 204 -80 366 -188 530 -353
142 -142 219 -248 300 -411 64 -129 66 -134 90 -209 59 -181 77 -299 78 -510
1 -166 -10 -273 -34 -345 -4 -14 -11 -44 -14 -68 -6 -38 -5 -42 14 -42 24 0
34 18 49 90 6 30 17 80 24 110 16 73 17 457 0 525 -6 28 -19 82 -28 120 -17
76 -49 179 -64 207 -6 10 -10 23 -10 29 0 6 -20 51 -44 100 -133 264 -332 491
-566 643 -126 82 -198 119 -333 170 -75 28 -113 48 -115 59 -5 25 32 22 129
-13 326 -118 617 -339 816 -620 272 -384 376 -844 294 -1307 -10 -57 -15 -105
-13 -108 16 -15 42 -3 47 23 3 15 10 43 15 62 5 19 14 91 21 160 19 201 1 443
-47 617 -9 32 -19 72 -24 88 -13 52 -72 198 -103 255 -92 169 -108 195 -208
320 -185 233 -424 410 -719 532 -14 6 -32 14 -40 17 -8 4 -45 16 -82 27 -58
16 -68 22 -68 41 0 30 13 29 124 -7 92 -31 109 -38 226 -93 511 -241 901 -747
1008 -1307 6 -30 15 -79 21 -108 23 -114 10 -521 -19 -597 -5 -14 -2 -28 7
-40 8 -11 30 -52 49 -92 19 -39 38 -74 42 -77 9 -5 40 113 64 239 18 95 18
514 0 615 -15 85 -57 255 -77 315 -184 549 -606 1005 -1125 1215 -30 12 -64
26 -75 31 -34 14 -114 39 -188 58 -211 54 -368 70 -617 64z m-730 -1978 c24
-29 -22 -135 -60 -135 -32 0 -28 79 6 119 29 35 36 37 54 16z"/>
<path d="M1163 2008 c-14 -18 -25 -68 -15 -68 9 0 34 71 28 77 -2 2 -8 -2 -13
-9z"/>
<path d="M1770 3302 c-57 -31 -102 -42 -176 -42 -51 0 -88 -7 -134 -25 -35
-14 -71 -25 -80 -25 -9 0 -27 -11 -39 -24 l-23 -24 21 -7 c51 -16 8 -71 -102
-129 -77 -41 -88 -50 -111 -93 -16 -32 -74 -83 -93 -83 -11 0 -29 -34 -37 -72
-5 -23 -3 -28 13 -28 11 0 31 11 44 23 36 37 75 40 104 8 14 -14 34 -36 45
-47 25 -27 21 -34 -36 -63 -44 -23 -46 -23 -80 -7 -29 14 -43 15 -76 6 -63
-17 -157 -105 -189 -175 -36 -81 -42 -109 -31 -165 5 -29 10 -55 10 -58 0 -2
13 -2 29 1 21 4 37 0 54 -13 21 -17 26 -31 31 -88 11 -147 21 -197 49 -244 15
-27 31 -48 36 -48 21 0 60 51 66 86 4 22 11 51 17 66 5 14 9 46 8 70 -3 68 -2
73 26 104 100 114 164 198 164 217 0 4 -6 7 -12 5 -24 -4 -55 12 -66 35 -6 12
-12 58 -14 102 -2 65 0 80 12 83 21 4 49 -54 52 -108 2 -37 7 -46 24 -48 11
-2 26 4 33 12 11 13 9 21 -9 46 -30 42 -12 78 26 52 19 -13 64 -86 64 -104 0
-10 4 -18 9 -18 20 0 72 54 90 94 11 22 31 51 45 63 14 12 28 35 31 50 3 15
10 48 15 73 5 25 15 74 22 110 6 36 16 71 21 78 12 16 210 17 236 0 38 -23 77
18 47 51 -21 23 -20 34 4 56 17 15 23 16 50 5 26 -11 30 -17 26 -37 -4 -12 -2
-23 3 -23 13 0 20 282 7 297 -6 6 -51 14 -101 18 -77 5 -95 3 -125 -13z"/>
<path d="M2160 3235 c0 -33 4 -45 14 -45 8 0 18 5 21 10 3 6 21 10 40 10 35 0
55 -24 35 -44 -5 -5 -10 -14 -10 -19 0 -4 17 8 38 27 20 20 45 36 55 36 35 0
11 23 -38 37 -28 8 -58 19 -67 24 -10 5 -34 9 -53 9 -35 0 -35 0 -35 -45z"/>
<path d="M2460 3201 c0 -5 9 -13 20 -16 25 -8 25 -27 0 -50 -20 -18 -20 -18
11 -37 19 -12 29 -24 25 -33 -7 -18 -6 -18 31 0 57 28 84 5 151 -125 54 -106
52 -142 -9 -237 -14 -23 -17 -37 -11 -50 5 -10 14 -29 20 -43 37 -91 87 -182
95 -174 3 3 3 12 0 20 -9 24 22 15 48 -13 14 -16 40 -57 59 -93 39 -77 67
-110 92 -110 12 0 18 -7 18 -24 0 -50 18 -34 22 19 3 57 0 63 -21 43 -21 -21
-71 43 -71 90 1 49 20 73 67 78 48 6 83 -12 104 -53 12 -24 19 -29 27 -21 7 7
12 16 12 21 0 5 9 22 21 38 17 24 20 39 15 72 -3 23 -6 53 -6 66 0 12 -8 36
-17 52 -13 23 -15 31 -5 41 7 7 12 22 12 35 0 30 -51 132 -66 133 -7 0 -22 11
-35 25 -13 13 -28 25 -34 25 -6 0 -5 -4 1 -8 6 -4 21 -22 32 -41 37 -61 -9
-98 -58 -46 -13 14 -29 25 -37 25 -23 0 -48 53 -53 115 l-5 60 -65 43 c-36 23
-77 53 -91 65 -14 13 -47 29 -73 37 -25 7 -49 16 -51 20 -21 34 -175 79 -175
51z"/>
<path d="M2760 3185 c0 -3 9 -16 20 -28 18 -18 22 -19 30 -7 7 11 3 18 -13 27
-24 13 -37 16 -37 8z"/>
<path d="M2890 3159 c0 -11 25 -39 35 -39 11 0 99 -100 117 -132 9 -17 37 -51
62 -77 25 -25 54 -57 65 -71 35 -44 23 -1 -16 57 -21 30 -42 62 -48 71 -21 33
-61 79 -123 140 -59 58 -92 76 -92 51z"/>
<path d="M2922 3036 c13 -13 25 -22 27 -20 6 5 -30 44 -41 44 -5 0 2 -11 14
-24z"/>
<path d="M1924 3029 c-8 -14 11 -33 25 -25 6 4 11 11 11 16 0 13 -29 20 -36 9z"/>
<path d="M2980 3023 c0 -4 7 -17 15 -27 8 -11 15 -30 15 -42 0 -14 18 -35 52
-62 66 -51 78 -44 18 11 -25 23 -52 56 -60 72 -16 32 -40 62 -40 48z"/>
<path d="M1071 2984 c0 -11 3 -14 6 -6 3 7 2 16 -1 19 -3 4 -6 -2 -5 -13z"/>
<path d="M1950 2971 c0 -17 30 -25 43 -12 8 8 8 11 0 11 -6 0 -18 3 -27 6 -9
3 -16 1 -16 -5z"/>
<path d="M2981 2954 c0 -11 3 -14 6 -6 3 7 2 16 -1 19 -3 4 -6 -2 -5 -13z"/>
<path d="M1050 2949 c0 -5 5 -7 10 -4 6 3 10 8 10 11 0 2 -4 4 -10 4 -5 0 -10
-5 -10 -11z"/>
<path d="M2940 2927 c0 -39 27 -82 70 -109 48 -32 52 -17 10 32 -18 22 -28 42
-24 52 4 12 0 18 -11 18 -8 0 -18 7 -21 15 -9 23 -24 18 -24 -8z"/>
<path d="M3214 2820 c6 -39 1 -46 -28 -41 -4 1 -5 -11 0 -26 9 -33 9 -69 0
-103 l-8 -25 20 23 c25 27 34 28 57 2 23 -25 13 -50 -21 -50 -26 0 -26 0 -22
-67 4 -61 1 -74 -28 -131 -18 -35 -37 -69 -43 -76 -8 -9 -3 -18 19 -35 17 -12
30 -27 30 -33 0 -7 11 -21 25 -33 30 -24 21 -45 -19 -48 -19 -1 -32 4 -40 18
-6 11 -23 35 -38 53 -30 35 -35 56 -17 68 15 9 2 54 -23 82 -31 32 -90 31
-108 -2 -10 -20 -10 -31 0 -55 13 -33 21 -36 50 -21 16 8 23 5 37 -17 13 -19
14 -28 5 -31 -7 -2 -12 -23 -12 -52 0 -39 4 -49 20 -53 13 -3 20 -14 20 -30 0
-18 7 -27 24 -31 38 -9 116 -102 116 -138 0 -16 8 -42 18 -56 37 -54 46 -90
33 -133 -7 -23 -21 -56 -32 -75 -25 -45 -25 -46 13 -42 30 3 34 8 54 68 21 61
37 130 63 258 14 70 14 319 0 396 -31 171 -90 355 -142 444 -25 42 -31 40 -23
-8z"/>
<path d="M2187 2623 c-7 -6 -1 -277 9 -450 l6 -93 90 0 90 0 -6 33 c-3 17 -10
84 -16 147 -21 256 -31 354 -36 362 -6 10 -128 11 -137 1z"/>
<path d="M1218 2574 c-13 -13 -8 -78 7 -98 8 -11 18 -16 22 -12 4 4 2 10 -4
14 -7 4 -13 29 -15 56 -2 26 -6 44 -10 40z"/>
<path d="M2801 2404 c0 -11 3 -14 6 -6 3 7 2 16 -1 19 -3 4 -6 -2 -5 -13z"/>
<path d="M3120 2281 c0 -12 26 -32 33 -25 3 4 0 13 -8 20 -16 16 -25 18 -25 5z"/>
<path d="M3043 2137 c9 -25 -18 -82 -50 -102 -15 -10 -41 -31 -58 -47 -16 -15
-33 -28 -37 -28 -22 0 -67 -131 -95 -272 l-5 -28 201 0 202 0 30 65 c35 78 36
108 4 160 -14 22 -25 50 -25 63 0 43 -41 95 -107 136 -24 14 -43 33 -43 41 0
7 -5 17 -12 21 -8 5 -9 2 -5 -9z"/>
<path d="M1805 1786 c-16 -11 -17 -22 -11 -94 3 -45 9 -87 11 -94 4 -9 28 -13
75 -13 l70 0 0 46 c0 25 3 74 6 108 l7 61 -70 0 c-42 0 -76 -5 -88 -14z"/>
<path d="M2360 1785 c7 -8 19 -15 26 -15 8 0 14 7 14 15 0 10 -10 15 -26 15
-22 0 -25 -2 -14 -15z"/>
<path d="M2250 1780 c-8 -5 -22 -11 -30 -13 -13 -4 -14 -24 -7 -148 8 -132 16
-169 37 -169 4 0 25 12 46 27 21 14 57 36 79 47 39 21 40 22 43 81 5 97 -2
116 -58 153 -50 32 -82 39 -110 22z"/>
<path d="M1758 1720 c-6 -24 -26 -256 -35 -395 -2 -38 -6 -80 -9 -92 l-4 -23
-328 -2 -327 -3 80 -69 c66 -56 145 -113 222 -159 6 -4 17 -1 25 6 26 26 78
40 123 34 39 -6 45 -4 45 12 0 56 313 75 428 25 110 -48 115 -53 90 -94 -16
-25 -13 -27 50 -36 53 -7 53 -7 47 18 -5 19 -1 28 19 41 33 22 138 23 156 2
18 -22 32 -19 62 13 25 27 130 63 144 49 14 -14 -10 -47 -50 -65 -23 -11 -50
-32 -60 -46 -9 -14 -27 -28 -41 -32 -33 -8 -32 -30 2 -37 47 -9 212 57 338
136 64 39 203 147 234 181 l24 26 -143 0 -144 0 -69 -42 c-150 -93 -201 -113
-218 -87 -14 22 -12 27 44 79 50 48 51 50 25 50 -33 0 -32 -3 -49 178 -11 123
-18 147 -34 122 -3 -5 -14 -10 -24 -10 -9 0 -26 -8 -37 -18 -38 -35 -69 -52
-96 -52 l-28 0 0 -110 0 -111 -137 3 -138 3 4 166 4 167 -42 7 c-22 4 -53 4
-68 1 -51 -12 -67 11 -73 106 -4 51 -8 73 -12 58z"/>
<path d="M2512 1170 c-24 -22 -51 -44 -60 -49 -9 -5 -14 -13 -10 -17 10 -10
91 22 119 47 13 12 36 27 52 35 37 20 34 24 -15 24 -36 0 -50 -7 -86 -40z"/>
<path d="M3076 1154 c-29 -33 -46 -60 -42 -69 12 -33 28 -22 131 93 l29 32
-35 -1 c-28 0 -42 -9 -83 -55z"/>
<path d="M3293 1174 c-15 -20 -54 -68 -86 -106 -54 -64 -67 -98 -36 -98 18 0
198 211 199 233 0 4 -11 7 -25 7 -16 0 -33 -12 -52 -36z"/>
<path d="M3471 1156 c-32 -54 -89 -130 -159 -214 -40 -48 -45 -65 -21 -70 24
-4 259 295 259 330 0 4 -10 8 -23 8 -17 0 -31 -14 -56 -54z"/>
<path d="M1686 1053 c-74 -4 -116 -24 -116 -55 0 -17 -5 -18 -57 -13 -58 7
-119 -7 -109 -24 3 -5 32 -19 63 -31 32 -12 67 -26 78 -30 151 -65 411 -105
572 -89 113 11 213 30 213 40 0 4 -13 12 -30 18 -36 12 -39 37 -5 53 18 8 28
8 39 -1 19 -16 63 6 98 48 14 16 34 31 44 34 18 4 17 5 -1 6 -12 0 -38 -15
-58 -34 -42 -40 -60 -43 -84 -15 -20 23 -77 27 -118 8 -28 -13 -30 -19 -12
-37 10 -10 8 -15 -8 -27 -15 -12 -34 -14 -74 -9 -84 10 -123 44 -86 75 28 23
27 24 -84 66 -39 14 -166 23 -265 17z"/>
<path d="M2877 932 l-27 -28 19 -50 c11 -27 31 -83 46 -124 15 -41 30 -84 35
-95 4 -11 11 -28 14 -38 7 -21 25 -19 40 6 7 12 7 25 0 45 -13 33 -9 40 49 90
38 32 38 32 68 15 30 -18 58 -12 66 14 3 9 -237 176 -272 189 -6 3 -23 -8 -38
-24z m114 -89 c43 -31 47 -43 22 -65 -35 -30 -42 -29 -56 4 -22 54 -29 88 -16
88 6 0 28 -12 50 -27z"/>
<path d="M1212 831 c3 -49 3 -93 -1 -98 -3 -5 -26 -17 -51 -28 -25 -11 -65
-29 -90 -41 l-44 -21 30 -16 c27 -14 33 -13 88 9 32 13 62 21 67 18 5 -3 9
-34 9 -68 0 -57 3 -66 25 -80 13 -9 27 -16 31 -16 3 0 5 46 3 103 l-4 102 72
35 c39 19 75 38 78 42 4 3 -5 14 -19 23 -24 16 -27 16 -76 -11 -27 -15 -52
-25 -54 -23 -2 2 -5 29 -7 59 -2 37 -10 62 -23 78 -33 38 -39 27 -34 -67z"/>
<path d="M2308 893 c7 -3 16 -2 19 1 4 3 -2 6 -13 5 -11 0 -14 -3 -6 -6z"/>
<path d="M2681 781 c-15 -10 -15 -10 28 -131 37 -105 38 -123 4 -149 -60 -48
-99 -35 -123 42 -8 23 -17 47 -20 52 -4 6 -15 36 -24 68 -19 59 -24 64 -57 47
-14 -8 -17 -15 -10 -28 5 -9 23 -60 41 -112 46 -134 59 -150 122 -150 63 0
130 36 148 79 14 34 9 65 -26 171 -41 121 -49 132 -83 111z"/>
<path d="M1533 718 c-16 -33 -96 -289 -91 -292 14 -13 48 -25 51 -19 2 5 26
75 52 157 47 143 48 149 30 162 -25 19 -30 18 -42 -8z"/>
<path d="M1745 678 c-9 -27 -39 -235 -39 -278 -1 -38 2 -45 19 -48 18 -2 22 6
33 62 6 36 12 79 12 96 0 33 26 43 36 13 4 -10 12 -31 19 -48 6 -16 22 -55 34
-87 21 -53 37 -67 77 -68 7 0 14 25 17 58 3 31 12 104 21 162 8 57 14 105 13
106 -1 1 -13 4 -27 6 -24 3 -25 0 -37 -82 -6 -47 -12 -86 -12 -87 -1 -2 -7 -3
-14 -3 -7 0 -19 17 -26 38 -8 20 -28 67 -44 105 -25 55 -35 67 -54 67 -13 0
-26 -6 -28 -12z"/>
<path d="M2315 660 c-4 -6 -4 -31 -1 -54 11 -69 4 -76 -75 -76 l-68 0 -7 60
c-6 56 -8 60 -32 60 l-25 0 6 -112 c4 -62 7 -137 7 -165 0 -52 0 -53 31 -53
l31 0 -4 72 -3 73 64 9 c80 10 91 0 91 -86 0 -55 1 -58 25 -58 l25 0 -1 108
c-1 59 -4 134 -8 167 -5 51 -9 60 -28 63 -11 2 -24 -2 -28 -8z"/>
</g>
</svg>
